<svg width="140" height="57" viewBox="0 0 140 57" fill="none" xmlns="http://www.w3.org/2000/svg">
<path d="M122.574 35.9428C123.568 34.383 124.133 32.5068 124.133 30.5175C124.133 24.8661 119.612 20.345 113.961 20.345C108.309 20.345 103.788 24.8661 103.788 30.5175C103.788 36.1689 108.309 40.69 113.961 40.69C115.928 40.69 117.781 40.1249 119.341 39.1528L126.394 46.0927L129.536 42.9505L122.574 35.9428ZM113.961 36.1689C110.841 36.1689 108.309 33.6371 108.309 30.5175C108.309 27.3979 110.841 24.8661 113.961 24.8661C117.08 24.8661 119.612 27.3979 119.612 30.5175C119.612 33.6371 117.08 36.1689 113.961 36.1689ZM90.225 38.4294V20.345H83.4434L106.049 0L128.654 20.345H124.54C121.873 17.5645 118.12 15.8239 113.961 15.8239C105.868 15.8239 99.2672 22.4247 99.2672 30.5175C99.2672 33.4336 100.126 36.1689 101.596 38.4294H90.225Z" fill="#0D55DF"/>
<path d="M8.37266 25.7552V40.7946H0V10.1986H6.52638L18.7634 25.7552V10.1986H27.136V40.7946H20.4808L8.37266 25.7552Z" fill="black"/>
<path d="M32.3703 40.7946V10.1986H40.7429V40.7946H32.3703Z" fill="black"/>
<path d="M45.9977 40.7946V10.1986H59.995C61.4835 10.1986 62.8575 10.5003 64.117 11.1036C65.3764 11.7069 66.4642 12.5256 67.3801 13.5599C68.2961 14.5654 68.9974 15.7001 69.4841 16.9642C69.9993 18.2283 70.2569 19.5067 70.2569 20.7995C70.2569 21.9774 70.0852 23.1121 69.7417 24.2038C69.3982 25.2955 68.8973 26.301 68.2389 27.2203C67.5805 28.1109 66.7934 28.8866 65.8774 29.5474L72.3179 40.7946H63.1294L57.7623 31.4004H54.3703V40.7946H45.9977ZM54.3703 24.0746H59.6515C59.995 24.0746 60.3242 23.9453 60.6391 23.6867C60.954 23.4282 61.2116 23.0547 61.4119 22.5663C61.6409 22.0779 61.7554 21.489 61.7554 20.7995C61.7554 20.0813 61.6266 19.4923 61.369 19.0327C61.14 18.5443 60.8395 18.1708 60.4673 17.9123C60.1238 17.6537 59.7803 17.5244 59.4369 17.5244H54.3703V24.0746Z" fill="black"/>
<path d="M32.3672 10.1986H40.7949L41.2966 43.528C41.7621 49.5451 43.0967 49.6026 46.8213 49.6026H140V56.4878C111.289 56.642 51.7337 56.4878 43.1589 56.4878C35.2438 56.4878 32.3672 49.6874 32.3672 43.6704V10.1986Z" fill="#0D55DF"/>
</svg>
