<svg width="17" height="17" viewBox="0 0 17 17" fill="none" xmlns="http://www.w3.org/2000/svg">
<path d="M3 0.5C2.834 0.5 2.67 0.516 2.513 0.548L2.707 1.528C2.80352 1.50915 2.90165 1.49977 3 1.5H3.458V0.5H3ZM5.292 0.5H4.375V1.5H5.292V0.5ZM7.125 0.5H6.208V1.5H7.125V0.5ZM8.958 0.5H8.042V1.5H8.958V0.5ZM10.792 0.5H9.875V1.5H10.792V0.5ZM12.625 0.5H11.708V1.5H12.625V0.5ZM14 0.5H13.542V1.5H14C14.1 1.5 14.199 1.51 14.293 1.529L14.487 0.548C14.3266 0.516176 14.1635 0.500099 14 0.5V0.5ZM16.079 1.61C15.8962 1.33745 15.6618 1.10337 15.389 0.921L14.833 1.752C14.997 1.862 15.138 2.003 15.248 2.167L16.078 1.611L16.079 1.61ZM1.61 0.921C1.33745 1.10377 1.10337 1.33819 0.921 1.611L1.752 2.167C1.862 2.003 2.003 1.862 2.167 1.752L1.61 0.922V0.921ZM16.5 3C16.5 2.834 16.484 2.67 16.452 2.513L15.472 2.707C15.49 2.801 15.5 2.899 15.5 3V3.458H16.5V3ZM0.548 2.513C0.516176 2.67338 0.500099 2.83649 0.5 3L0.5 3.458H1.5V3C1.5 2.9 1.51 2.801 1.529 2.707L0.548 2.513ZM0.5 4.375V5.292H1.5V4.375H0.5ZM16.5 5.292V4.375H15.5V5.292H16.5ZM0.5 6.208V7.125H1.5V6.208H0.5ZM16.5 7.125V6.208H15.5V7.125H16.5ZM0.5 8.042V8.958H1.5V8.042H0.5ZM15.5 8.958H16.5V8.042H15.5V8.958ZM0.5 9.875V10.792H1.5V9.875H0.5ZM16.5 10.792V9.875H15.5V10.792H16.5ZM0.5 11.708V12.625H1.5V11.708H0.5ZM16.5 12.625V11.708H15.5V12.625H16.5ZM0.5 13.542V14C0.5 14.166 0.516 14.33 0.548 14.487L1.528 14.293C1.50915 14.1965 1.49977 14.0983 1.5 14V13.542H0.5ZM16.5 14V13.542H15.5V14C15.5 14.1 15.49 14.199 15.471 14.293L16.452 14.487C16.484 14.329 16.5 14.167 16.5 14ZM0.921 15.39C1.104 15.662 1.338 15.896 1.611 16.079L2.167 15.248C2.00286 15.1381 1.86186 14.9971 1.752 14.833L0.922 15.389L0.921 15.39ZM15.39 16.079C15.662 15.896 15.896 15.662 16.079 15.389L15.248 14.833C15.138 14.997 14.997 15.138 14.833 15.248L15.389 16.078L15.39 16.079ZM2.513 16.452C2.671 16.484 2.833 16.5 3 16.5H3.458V15.5H3C2.9 15.5 2.801 15.49 2.707 15.471L2.513 16.452ZM14 16.5C14.166 16.5 14.33 16.484 14.487 16.452L14.293 15.472C14.1965 15.4909 14.0983 15.5002 14 15.5H13.542V16.5H14ZM4.375 16.5H5.292V15.5H4.375V16.5ZM6.208 16.5H7.125V15.5H6.208V16.5ZM8.042 15.5V16.5H8.958V15.5H8.042ZM9.875 16.5H10.792V15.5H9.875V16.5ZM11.708 16.5H12.625V15.5H11.708V16.5ZM9 5C9 4.86739 8.94732 4.74021 8.85355 4.64645C8.75979 4.55268 8.63261 4.5 8.5 4.5C8.36739 4.5 8.24021 4.55268 8.14645 4.64645C8.05268 4.74021 8 4.86739 8 5V8H5C4.86739 8 4.74021 8.05268 4.64645 8.14645C4.55268 8.24021 4.5 8.36739 4.5 8.5C4.5 8.63261 4.55268 8.75979 4.64645 8.85355C4.74021 8.94732 4.86739 9 5 9H8V12C8 12.1326 8.05268 12.2598 8.14645 12.3536C8.24021 12.4473 8.36739 12.5 8.5 12.5C8.63261 12.5 8.75979 12.4473 8.85355 12.3536C8.94732 12.2598 9 12.1326 9 12V9H12C12.1326 9 12.2598 8.94732 12.3536 8.85355C12.4473 8.75979 12.5 8.63261 12.5 8.5C12.5 8.36739 12.4473 8.24021 12.3536 8.14645C12.2598 8.05268 12.1326 8 12 8H9V5Z" fill="white"/>
</svg>
