<svg width="14" height="17" viewBox="0 0 14 17" fill="none" xmlns="http://www.w3.org/2000/svg">
<g id="Group 9761">
<path id="Vector" d="M2.33333 0.5C1.71449 0.5 1.121 0.710714 0.683417 1.08579C0.245833 1.46086 0 1.96957 0 2.5V14.5C0 15.0304 0.245833 15.5391 0.683417 15.9142C1.121 16.2893 1.71449 16.5 2.33333 16.5H11.6667C12.2855 16.5 12.879 16.2893 13.3166 15.9142C13.7542 15.5391 14 15.0304 14 14.5V2.5C14 1.96957 13.7542 1.46086 13.3166 1.08579C12.879 0.710714 12.2855 0.5 11.6667 0.5H2.33333ZM2.33333 1.5H11.6667C11.9761 1.5 12.2728 1.60536 12.4916 1.79289C12.7104 1.98043 12.8333 2.23478 12.8333 2.5V14.5C12.8333 14.7652 12.7104 15.0196 12.4916 15.2071C12.2728 15.3946 11.9761 15.5 11.6667 15.5H2.33333C2.02391 15.5 1.72717 15.3946 1.50838 15.2071C1.28958 15.0196 1.16667 14.7652 1.16667 14.5V2.5C1.16667 2.23478 1.28958 1.98043 1.50838 1.79289C1.72717 1.60536 2.02391 1.5 2.33333 1.5Z" fill="#F4F5F6"/>
<path id="Vector_2" d="M7 12C7.15909 12 7.31166 11.9473 7.42416 11.8536C7.53665 11.7598 7.59985 11.6327 7.59985 11.5001V7.70764L8.9747 8.85447C9.08734 8.94834 9.2401 9.00108 9.39939 9.00108C9.55868 9.00108 9.71145 8.94834 9.82409 8.85447C9.93672 8.7606 10 8.63328 10 8.50052C10 8.36777 9.93672 8.24045 9.82409 8.14657L7.42469 6.14687C7.36897 6.10032 7.30278 6.06338 7.2299 6.03818C7.15703 6.01297 7.0789 6 7 6C6.9211 6 6.84297 6.01297 6.7701 6.03818C6.69722 6.06338 6.63103 6.10032 6.57531 6.14687L4.17591 8.14657C4.06328 8.24045 4 8.36777 4 8.50052C4 8.63328 4.06328 8.7606 4.17591 8.85447C4.28855 8.94834 4.44132 9.00108 4.60061 9.00108C4.7599 9.00108 4.91266 8.94834 5.0253 8.85447L6.40015 7.70764V11.5001C6.40015 11.6327 6.46335 11.7598 6.57584 11.8536C6.68834 11.9473 6.84091 12 7 12Z" fill="#F4F5F6"/>
</g>
</svg>
