<svg width="13" height="8" viewBox="0 0 13 8" fill="none" xmlns="http://www.w3.org/2000/svg">
<path fill-rule="evenodd" clip-rule="evenodd" d="M0.145917 0.978925C0.192363 0.932362 0.247539 0.895419 0.308284 0.870212C0.369029 0.845006 0.43415 0.832031 0.499917 0.832031C0.565685 0.832031 0.630806 0.845006 0.691551 0.870212C0.752296 0.895419 0.807472 0.932362 0.853917 0.978925L6.49992 6.62593L12.1459 0.978925C12.1924 0.932437 12.2476 0.89556 12.3083 0.870401C12.3691 0.845242 12.4342 0.832293 12.4999 0.832293C12.5657 0.832293 12.6308 0.845242 12.6915 0.870401C12.7522 0.89556 12.8074 0.932437 12.8539 0.978925C12.9004 1.02541 12.9373 1.0806 12.9624 1.14134C12.9876 1.20208 13.0005 1.26718 13.0005 1.33292C13.0005 1.39867 12.9876 1.46377 12.9624 1.52451C12.9373 1.58525 12.9004 1.64044 12.8539 1.68692L6.85392 7.68692C6.80747 7.73349 6.7523 7.77043 6.69155 7.79564C6.63081 7.82084 6.56568 7.83382 6.49992 7.83382C6.43415 7.83382 6.36903 7.82084 6.30828 7.79564C6.24754 7.77043 6.19236 7.73349 6.14592 7.68692L0.145917 1.68692C0.0993541 1.64048 0.0624112 1.5853 0.0372047 1.52456C0.0119983 1.46381 -0.000976562 1.39869 -0.000976562 1.33292C-0.000976562 1.26716 0.0119983 1.20204 0.0372047 1.14129C0.0624112 1.08055 0.0993541 1.02537 0.145917 0.978925Z" fill="#003CFF"/>
</svg>
