<svg width="17" height="16" viewBox="0 0 17 16" fill="none" xmlns="http://www.w3.org/2000/svg">
<g clip-path="url(#clip0_604_279)">
<path d="M8.58608 10.9999C8.71869 10.9999 8.84587 10.9472 8.93963 10.8535C9.0334 10.7597 9.08608 10.6325 9.08608 10.4999V6.70692L10.2321 7.85392C10.326 7.9478 10.4533 8.00055 10.5861 8.00055C10.7189 8.00055 10.8462 7.9478 10.9401 7.85392C11.034 7.76003 11.0867 7.63269 11.0867 7.49992C11.0867 7.36714 11.034 7.2398 10.9401 7.14592L8.94008 5.14592C8.89364 5.09935 8.83846 5.06241 8.77771 5.0372C8.71697 5.012 8.65185 4.99902 8.58608 4.99902C8.52031 4.99902 8.45519 5.012 8.39445 5.0372C8.3337 5.06241 8.27853 5.09935 8.23208 5.14592L6.23208 7.14592C6.13819 7.2398 6.08545 7.36714 6.08545 7.49992C6.08545 7.63269 6.13819 7.76003 6.23208 7.85392C6.32597 7.9478 6.45331 8.00055 6.58608 8.00055C6.71886 8.00055 6.84619 7.9478 6.94008 7.85392L8.08608 6.70692V10.4999C8.08608 10.6325 8.13876 10.7597 8.23253 10.8535C8.3263 10.9472 8.45347 10.9999 8.58608 10.9999Z" fill="#1D1929"/>
<path d="M4.58594 0C4.0555 0 3.5468 0.210714 3.17172 0.585786C2.79665 0.960859 2.58594 1.46957 2.58594 2V14C2.58594 14.5304 2.79665 15.0391 3.17172 15.4142C3.5468 15.7893 4.0555 16 4.58594 16H12.5859C13.1164 16 13.6251 15.7893 14.0002 15.4142C14.3752 15.0391 14.5859 14.5304 14.5859 14V2C14.5859 1.46957 14.3752 0.960859 14.0002 0.585786C13.6251 0.210714 13.1164 0 12.5859 0L4.58594 0ZM4.58594 1H12.5859C12.8512 1 13.1055 1.10536 13.293 1.29289C13.4806 1.48043 13.5859 1.73478 13.5859 2V14C13.5859 14.2652 13.4806 14.5196 13.293 14.7071C13.1055 14.8946 12.8512 15 12.5859 15H4.58594C4.32072 15 4.06637 14.8946 3.87883 14.7071C3.69129 14.5196 3.58594 14.2652 3.58594 14V2C3.58594 1.73478 3.69129 1.48043 3.87883 1.29289C4.06637 1.10536 4.32072 1 4.58594 1Z" fill="#1D1929"/>
</g>
<defs>
<clipPath id="clip0_604_279">
<rect width="16" height="16" fill="white" transform="translate(0.585938)"/>
</clipPath>
</defs>
</svg>
