<svg width="16" height="16" viewBox="0 0 16 16" fill="none" xmlns="http://www.w3.org/2000/svg">
<g id="sliders" clip-path="url(#clip0_604_259)">
<path id="Vector" fill-rule="evenodd" clip-rule="evenodd" d="M11.5 1.99958C11.303 1.99958 11.108 2.03838 10.926 2.11376C10.744 2.18914 10.5786 2.29963 10.4393 2.43892C10.3001 2.5782 10.1896 2.74356 10.1142 2.92555C10.0388 3.10754 10 3.30259 10 3.49958C10 3.69656 10.0388 3.89161 10.1142 4.0736C10.1896 4.25559 10.3001 4.42095 10.4393 4.56024C10.5786 4.69952 10.744 4.81001 10.926 4.8854C11.108 4.96078 11.303 4.99958 11.5 4.99958C11.8978 4.99958 12.2794 4.84154 12.5607 4.56024C12.842 4.27893 13 3.8974 13 3.49958C13 3.10175 12.842 2.72022 12.5607 2.43892C12.2794 2.15761 11.8978 1.99958 11.5 1.99958ZM9.05 2.99958C9.16476 2.43443 9.47136 1.92634 9.91787 1.56139C10.3644 1.19644 10.9233 0.99707 11.5 0.99707C12.0767 0.99707 12.6356 1.19644 13.0821 1.56139C13.5286 1.92634 13.8352 2.43443 13.95 2.99958H16V3.99958H13.95C13.8352 4.56472 13.5286 5.07281 13.0821 5.43777C12.6356 5.80272 12.0767 6.00208 11.5 6.00208C10.9233 6.00208 10.3644 5.80272 9.91787 5.43777C9.47136 5.07281 9.16476 4.56472 9.05 3.99958H0V2.99958H9.05ZM4.5 6.99958C4.10218 6.99958 3.72064 7.15761 3.43934 7.43892C3.15804 7.72022 3 8.10175 3 8.49958C3 8.8974 3.15804 9.27893 3.43934 9.56024C3.72064 9.84154 4.10218 9.99958 4.5 9.99958C4.89782 9.99958 5.27936 9.84154 5.56066 9.56024C5.84196 9.27893 6 8.8974 6 8.49958C6 8.10175 5.84196 7.72022 5.56066 7.43892C5.27936 7.15761 4.89782 6.99958 4.5 6.99958ZM2.05 7.99958C2.16476 7.43443 2.47136 6.92634 2.91787 6.56139C3.36438 6.19644 3.92332 5.99707 4.5 5.99707C5.07668 5.99707 5.63562 6.19644 6.08213 6.56139C6.52864 6.92634 6.83524 7.43443 6.95 7.99958H16V8.99958H6.95C6.83524 9.56472 6.52864 10.0728 6.08213 10.4378C5.63562 10.8027 5.07668 11.0021 4.5 11.0021C3.92332 11.0021 3.36438 10.8027 2.91787 10.4378C2.47136 10.0728 2.16476 9.56472 2.05 8.99958H0V7.99958H2.05ZM11.5 11.9996C11.1022 11.9996 10.7206 12.1576 10.4393 12.4389C10.158 12.7202 10 13.1018 10 13.4996C10 13.8974 10.158 14.2789 10.4393 14.5602C10.7206 14.8415 11.1022 14.9996 11.5 14.9996C11.8978 14.9996 12.2794 14.8415 12.5607 14.5602C12.842 14.2789 13 13.8974 13 13.4996C13 13.1018 12.842 12.7202 12.5607 12.4389C12.2794 12.1576 11.8978 11.9996 11.5 11.9996ZM9.05 12.9996C9.16476 12.4344 9.47136 11.9263 9.91787 11.5614C10.3644 11.1964 10.9233 10.9971 11.5 10.9971C12.0767 10.9971 12.6356 11.1964 13.0821 11.5614C13.5286 11.9263 13.8352 12.4344 13.95 12.9996H16V13.9996H13.95C13.8352 14.5647 13.5286 15.0728 13.0821 15.4378C12.6356 15.8027 12.0767 16.0021 11.5 16.0021C10.9233 16.0021 10.3644 15.8027 9.91787 15.4378C9.47136 15.0728 9.16476 14.5647 9.05 13.9996H0V12.9996H9.05Z" fill="#1D1929"/>
</g>
<defs>
<clipPath id="clip0_604_259">
<rect width="16" height="16" fill="white"/>
</clipPath>
</defs>
</svg>
