<svg width="17" height="17" viewBox="0 0 17 17" fill="none" xmlns="http://www.w3.org/2000/svg">
<g id="printer" clip-path="url(#clip0_604_284)">
<path id="Vector" d="M3.08594 8.5C3.21855 8.5 3.34572 8.44732 3.43949 8.35355C3.53326 8.25979 3.58594 8.13261 3.58594 8C3.58594 7.86739 3.53326 7.74021 3.43949 7.64645C3.34572 7.55268 3.21855 7.5 3.08594 7.5C2.95333 7.5 2.82615 7.55268 2.73238 7.64645C2.63862 7.74021 2.58594 7.86739 2.58594 8C2.58594 8.13261 2.63862 8.25979 2.73238 8.35355C2.82615 8.44732 2.95333 8.5 3.08594 8.5Z" fill="#1D1929"/>
<path id="Vector_2" d="M5.58594 1.5C5.0555 1.5 4.5468 1.71071 4.17172 2.08579C3.79665 2.46086 3.58594 2.96957 3.58594 3.5V5.5H2.58594C2.0555 5.5 1.5468 5.71071 1.17172 6.08579C0.796651 6.46086 0.585938 6.96957 0.585938 7.5L0.585938 10.5C0.585938 11.0304 0.796651 11.5391 1.17172 11.9142C1.5468 12.2893 2.0555 12.5 2.58594 12.5H3.58594V13.5C3.58594 14.0304 3.79665 14.5391 4.17172 14.9142C4.5468 15.2893 5.0555 15.5 5.58594 15.5H11.5859C12.1164 15.5 12.6251 15.2893 13.0002 14.9142C13.3752 14.5391 13.5859 14.0304 13.5859 13.5V12.5H14.5859C15.1164 12.5 15.6251 12.2893 16.0002 11.9142C16.3752 11.5391 16.5859 11.0304 16.5859 10.5V7.5C16.5859 6.96957 16.3752 6.46086 16.0002 6.08579C15.6251 5.71071 15.1164 5.5 14.5859 5.5H13.5859V3.5C13.5859 2.96957 13.3752 2.46086 13.0002 2.08579C12.6251 1.71071 12.1164 1.5 11.5859 1.5H5.58594ZM4.58594 3.5C4.58594 3.23478 4.69129 2.98043 4.87883 2.79289C5.06637 2.60536 5.32072 2.5 5.58594 2.5H11.5859C11.8512 2.5 12.1055 2.60536 12.293 2.79289C12.4806 2.98043 12.5859 3.23478 12.5859 3.5V5.5H4.58594V3.5ZM5.58594 8.5C5.0555 8.5 4.5468 8.71071 4.17172 9.08579C3.79665 9.46086 3.58594 9.96957 3.58594 10.5V11.5H2.58594C2.32072 11.5 2.06637 11.3946 1.87883 11.2071C1.69129 11.0196 1.58594 10.7652 1.58594 10.5V7.5C1.58594 7.23478 1.69129 6.98043 1.87883 6.79289C2.06637 6.60536 2.32072 6.5 2.58594 6.5H14.5859C14.8512 6.5 15.1055 6.60536 15.293 6.79289C15.4806 6.98043 15.5859 7.23478 15.5859 7.5V10.5C15.5859 10.7652 15.4806 11.0196 15.293 11.2071C15.1055 11.3946 14.8512 11.5 14.5859 11.5H13.5859V10.5C13.5859 9.96957 13.3752 9.46086 13.0002 9.08579C12.6251 8.71071 12.1164 8.5 11.5859 8.5H5.58594ZM12.5859 10.5V13.5C12.5859 13.7652 12.4806 14.0196 12.293 14.2071C12.1055 14.3946 11.8512 14.5 11.5859 14.5H5.58594C5.32072 14.5 5.06637 14.3946 4.87883 14.2071C4.69129 14.0196 4.58594 13.7652 4.58594 13.5V10.5C4.58594 10.2348 4.69129 9.98043 4.87883 9.79289C5.06637 9.60536 5.32072 9.5 5.58594 9.5H11.5859C11.8512 9.5 12.1055 9.60536 12.293 9.79289C12.4806 9.98043 12.5859 10.2348 12.5859 10.5Z" fill="#1D1929"/>
</g>
<defs>
<clipPath id="clip0_604_284">
<rect width="16" height="16" fill="white" transform="translate(0.585938 0.5)"/>
</clipPath>
</defs>
</svg>
