<svg width="41" height="30" viewBox="0 0 41 30" fill="none" xmlns="http://www.w3.org/2000/svg">
<path d="M26.017 18.5036C21.1625 18.5036 11.4716 20.9281 11.4716 25.7952V29.4411H40.5625V25.7952C40.5625 20.9281 30.8716 18.5036 26.017 18.5036ZM9.65341 11.2119V5.74316H6.01705V11.2119H0.5625V14.8577H6.01705V20.3265H9.65341V14.8577H15.108V11.2119M26.017 14.8577C27.9459 14.8577 29.7957 14.0895 31.1596 12.7221C32.5235 11.3546 33.2898 9.49995 33.2898 7.56608C33.2898 5.63221 32.5235 3.77755 31.1596 2.41009C29.7957 1.04264 27.9459 0.274414 26.017 0.274414C24.0882 0.274414 22.2384 1.04264 20.8745 2.41009C19.5105 3.77755 18.7443 5.63221 18.7443 7.56608C18.7443 9.49995 19.5105 11.3546 20.8745 12.7221C22.2384 14.0895 24.0882 14.8577 26.017 14.8577Z" fill="#0D55DF"/>
</svg>
