<svg width="23" height="41" viewBox="0 0 23 41" fill="none" xmlns="http://www.w3.org/2000/svg">
<path d="M0.5625 27.5245H5.00694C5.00694 29.9245 8.05139 31.9689 11.6736 31.9689C15.2958 31.9689 18.3403 29.9245 18.3403 27.5245C18.3403 25.08 16.0292 24.1911 11.1403 23.0133C6.42917 21.8356 0.5625 20.3689 0.5625 14.1911C0.5625 10.2133 3.82917 6.83557 8.34028 5.70223V0.857788H15.0069V5.70223C19.5181 6.83557 22.7847 10.2133 22.7847 14.1911H18.3403C18.3403 11.7911 15.2958 9.74668 11.6736 9.74668C8.05139 9.74668 5.00694 11.7911 5.00694 14.1911C5.00694 16.6356 7.31805 17.5245 12.2069 18.7022C16.9181 19.88 22.7847 21.3467 22.7847 27.5245C22.7847 31.5022 19.5181 34.88 15.0069 36.0133V40.8578H8.34028V36.0133C3.82917 34.88 0.5625 31.5022 0.5625 27.5245Z" fill="#0D55DF"/>
</svg>
