<svg width="41" height="25" viewBox="0 0 41 25" fill="none" xmlns="http://www.w3.org/2000/svg">
<path d="M20.5625 0.774414C22.1096 0.774414 23.5933 1.389 24.6873 2.48296C25.7812 3.57692 26.3958 5.06065 26.3958 6.60775C26.3958 8.15484 25.7812 9.63857 24.6873 10.7325C23.5933 11.8265 22.1096 12.4411 20.5625 12.4411C19.0154 12.4411 17.5317 11.8265 16.4377 10.7325C15.3437 9.63857 14.7292 8.15484 14.7292 6.60775C14.7292 5.06065 15.3437 3.57692 16.4377 2.48296C17.5317 1.389 19.0154 0.774414 20.5625 0.774414ZM8.89583 4.94108C9.82917 4.94108 10.6958 5.19108 11.4458 5.64108C11.1958 8.02441 11.8958 10.3911 13.3292 12.2411C12.4958 13.8411 10.8292 14.9411 8.89583 14.9411C7.56975 14.9411 6.29798 14.4143 5.3603 13.4766C4.42262 12.5389 3.89583 11.2672 3.89583 9.94108C3.89583 8.615 4.42262 7.34323 5.3603 6.40555C6.29798 5.46786 7.56975 4.94108 8.89583 4.94108ZM32.2292 4.94108C33.5552 4.94108 34.827 5.46786 35.7647 6.40555C36.7024 7.34323 37.2292 8.615 37.2292 9.94108C37.2292 11.2672 36.7024 12.5389 35.7647 13.4766C34.827 14.4143 33.5552 14.9411 32.2292 14.9411C30.2958 14.9411 28.6292 13.8411 27.7958 12.2411C29.2292 10.3911 29.9292 8.02441 29.6792 5.64108C30.4292 5.19108 31.2958 4.94108 32.2292 4.94108ZM9.72917 22.0244C9.72917 18.5744 14.5792 15.7744 20.5625 15.7744C26.5458 15.7744 31.3958 18.5744 31.3958 22.0244V24.9411H9.72917V22.0244ZM0.5625 24.9411V22.4411C0.5625 20.1244 3.7125 18.1744 7.97917 17.6077C6.99583 18.7411 6.39583 20.3077 6.39583 22.0244V24.9411H0.5625ZM40.5625 24.9411H34.7292V22.0244C34.7292 20.3077 34.1292 18.7411 33.1458 17.6077C37.4125 18.1744 40.5625 20.1244 40.5625 22.4411V24.9411Z" fill="#0D55DF"/>
</svg>
