<svg width="24" height="15" viewBox="0 0 24 15" fill="none" xmlns="http://www.w3.org/2000/svg">
<path d="M13 6.5C13.5933 6.5 14.1734 6.32405 14.6667 5.99441C15.1601 5.66477 15.5446 5.19623 15.7716 4.64805C15.9987 4.09987 16.0581 3.49667 15.9424 2.91473C15.8266 2.33279 15.5409 1.79824 15.1213 1.37868C14.7018 0.959123 14.1672 0.673401 13.5853 0.557646C13.0033 0.44189 12.4001 0.5013 11.8519 0.728363C11.3038 0.955426 10.8352 1.33994 10.5056 1.83329C10.1759 2.32664 10 2.90666 10 3.5C10 4.29565 10.3161 5.05871 10.8787 5.62132C11.4413 6.18393 12.2044 6.5 13 6.5ZM13 2.5C13.1978 2.5 13.3911 2.55865 13.5556 2.66853C13.72 2.77841 13.8482 2.93459 13.9239 3.11732C13.9996 3.30004 14.0194 3.50111 13.9808 3.69509C13.9422 3.88907 13.847 4.06726 13.7071 4.20711C13.5673 4.34696 13.3891 4.4422 13.1951 4.48079C13.0011 4.51937 12.8 4.49957 12.6173 4.42388C12.4346 4.34819 12.2784 4.22002 12.1685 4.05557C12.0586 3.89112 12 3.69778 12 3.5C12 3.23478 12.1054 2.98043 12.2929 2.79289C12.4804 2.60536 12.7348 2.5 13 2.5ZM17.11 6.36C17.6951 5.52103 18.0087 4.52282 18.0087 3.5C18.0087 2.47718 17.6951 1.47897 17.11 0.640001C17.3976 0.547414 17.6979 0.500182 18 0.500001C18.7956 0.500001 19.5587 0.816072 20.1213 1.37868C20.6839 1.94129 21 2.70435 21 3.5C21 4.29565 20.6839 5.05871 20.1213 5.62132C19.5587 6.18393 18.7956 6.5 18 6.5C17.6979 6.49982 17.3976 6.45259 17.11 6.36ZM13 8.5C7 8.5 7 12.5 7 12.5V14.5H19V12.5C19 12.5 19 8.5 13 8.5ZM9 12.5C9 12.21 9.32 10.5 13 10.5C16.5 10.5 16.94 12.06 17 12.5M24 12.5V14.5H21V12.5C20.9766 11.7566 20.8054 11.0254 20.4964 10.3489C20.1873 9.67244 19.7466 9.0643 19.2 8.56C24 9.05 24 12.5 24 12.5ZM8 7.5H5V10.5H3V7.5H0V5.5H3V2.5H5V5.5H8V7.5Z" fill="#fff"/>
</svg>
