<svg width="24" height="24" viewBox="0 0 24 24" fill="none" xmlns="http://www.w3.org/2000/svg">
<path d="M10.9997 6.0001H13.9997L17.2897 2.7001C17.3827 2.60637 17.4933 2.53197 17.6152 2.4812C17.737 2.43044 17.8677 2.4043 17.9997 2.4043C18.1317 2.4043 18.2625 2.43044 18.3843 2.4812C18.5062 2.53197 18.6168 2.60637 18.7097 2.7001L21.2897 5.2901C21.476 5.47746 21.5805 5.73091 21.5805 5.9951C21.5805 6.25928 21.476 6.51273 21.2897 6.7001L18.9997 9.0001H10.9997V11.0001C10.9997 11.2653 10.8944 11.5197 10.7068 11.7072C10.5193 11.8947 10.265 12.0001 9.99974 12.0001C9.73452 12.0001 9.48017 11.8947 9.29263 11.7072C9.10509 11.5197 8.99974 11.2653 8.99974 11.0001V8.0001C8.99974 7.46966 9.21045 6.96095 9.58552 6.58588C9.9606 6.21081 10.4693 6.0001 10.9997 6.0001ZM4.99974 11.0001V15.0001L2.70974 17.2901C2.52349 17.4775 2.41895 17.7309 2.41895 17.9951C2.41895 18.2593 2.52349 18.5127 2.70974 18.7001L5.28974 21.2901C5.3827 21.3838 5.4933 21.4582 5.61516 21.509C5.73702 21.5598 5.86773 21.5859 5.99974 21.5859C6.13175 21.5859 6.26246 21.5598 6.38431 21.509C6.50617 21.4582 6.61677 21.3838 6.70974 21.2901L10.9997 17.0001H14.9997C15.265 17.0001 15.5193 16.8947 15.7068 16.7072C15.8944 16.5197 15.9997 16.2653 15.9997 16.0001V15.0001H16.9997C17.265 15.0001 17.5193 14.8947 17.7068 14.7072C17.8944 14.5197 17.9997 14.2653 17.9997 14.0001V13.0001H18.9997C19.265 13.0001 19.5193 12.8947 19.7068 12.7072C19.8944 12.5197 19.9997 12.2653 19.9997 12.0001V11.0001H12.9997V12.0001C12.9997 12.5305 12.789 13.0392 12.414 13.4143C12.0389 13.7894 11.5302 14.0001 10.9997 14.0001H8.99974C8.4693 14.0001 7.9606 13.7894 7.58552 13.4143C7.21045 13.0392 6.99974 12.5305 6.99974 12.0001V9.0001L4.99974 11.0001Z" fill="black"/>
</svg>
