<svg width="24" height="21" viewBox="0 0 24 21" fill="none" xmlns="http://www.w3.org/2000/svg">
<path d="M15.6522 10.4348H17.2174V13.3774L19.7635 14.8487L18.9809 16.2052L15.6522 14.2852V10.4348ZM16.6957 8.34783C15.3119 8.34783 13.9848 8.89751 13.0064 9.87596C12.0279 10.8544 11.4783 12.1815 11.4783 13.5652C11.4783 14.949 12.0279 16.276 13.0064 17.2545C13.9848 18.2329 15.3119 18.7826 16.6957 18.7826C18.0794 18.7826 19.4065 18.2329 20.3849 17.2545C21.3634 16.276 21.913 14.949 21.913 13.5652C21.913 12.1815 21.3634 10.8544 20.3849 9.87596C19.4065 8.89751 18.0794 8.34783 16.6957 8.34783ZM16.6957 6.26087C18.6329 6.26087 20.4908 7.03043 21.8606 8.40026C23.2304 9.77009 24 11.628 24 13.5652C24 15.5025 23.2304 17.3603 21.8606 18.7302C20.4908 20.1 18.6329 20.8696 16.6957 20.8696C13.7843 20.8696 11.2696 19.1583 10.0904 16.6957H0V13.5652C0 10.7896 5.56174 9.3913 8.34783 9.3913C8.97391 9.3913 9.74609 9.46435 10.56 9.6C11.8539 7.59652 14.1183 6.26087 16.6957 6.26087ZM9.3913 13.5652C9.3913 12.8348 9.49565 12.1252 9.69391 11.4783C9.25565 11.4052 8.79652 11.3739 8.34783 11.3739C5.2487 11.3739 1.98261 12.8974 1.98261 13.5652V14.713H9.48522C9.42261 14.3374 9.3913 13.9513 9.3913 13.5652ZM8.34783 0C9.45482 0 10.5165 0.43975 11.2992 1.22251C12.082 2.00527 12.5217 3.06692 12.5217 4.17391C12.5217 5.2809 12.082 6.34256 11.2992 7.12532C10.5165 7.90808 9.45482 8.34783 8.34783 8.34783C7.24084 8.34783 6.17918 7.90808 5.39642 7.12532C4.61366 6.34256 4.17391 5.2809 4.17391 4.17391C4.17391 3.06692 4.61366 2.00527 5.39642 1.22251C6.17918 0.43975 7.24084 0 8.34783 0ZM8.34783 1.98261C7.76666 1.98261 7.20929 2.21348 6.79834 2.62443C6.38739 3.03538 6.15652 3.59274 6.15652 4.17391C6.15652 4.75508 6.38739 5.31245 6.79834 5.7234C7.20929 6.13435 7.76666 6.36522 8.34783 6.36522C8.929 6.36522 9.48636 6.13435 9.89731 5.7234C10.3083 5.31245 10.5391 4.75508 10.5391 4.17391C10.5391 3.59274 10.3083 3.03538 9.89731 2.62443C9.48636 2.21348 8.929 1.98261 8.34783 1.98261Z" fill="#fff"/>
</svg>
