<svg width="24" height="18" viewBox="0 0 24 18" fill="none" xmlns="http://www.w3.org/2000/svg">
<path d="M16 9.36963C16 7.98963 17.12 6.86963 18.5 6.86963C19.88 6.86963 21 7.98963 21 9.36963C21 10.7496 19.88 11.8696 18.5 11.8696C17.12 11.8696 16 10.7496 16 9.36963ZM13 0.869629V17.8696H24V0.869629H13ZM22 13.8696C20.9 13.8696 20 14.7696 20 15.8696H17C17 14.7696 16.11 13.8696 15 13.8696V4.86963C16.11 4.86963 17 3.97963 17 2.86963H20C20 3.97963 20.9 4.86963 22 4.86963V13.8696ZM7 3.86963C8.1 3.86963 9 4.76963 9 5.86963C9 6.96963 8.1 7.86963 7 7.86963C5.9 7.86963 5 6.96963 5 5.86963C5 4.76963 5.9 3.86963 7 3.86963ZM7 1.86963C4.79 1.86963 3 3.65963 3 5.86963C3 8.07963 4.79 9.86963 7 9.86963C9.21 9.86963 11 8.07963 11 5.86963C11 3.65963 9.21 1.86963 7 1.86963ZM7 11.8696C3.13 11.8696 0 13.6596 0 15.8696V17.8696H11V15.8696H2C2 15.2896 3.75 13.8696 7 13.8696C8.83 13.8696 10.17 14.3196 11 14.8196V12.5896C9.87 12.1396 8.5 11.8696 7 11.8696Z" fill="#343434"/>
</svg>
