<svg width="24" height="15" viewBox="0 0 24 15" fill="none" xmlns="http://www.w3.org/2000/svg">
<path d="M12 0.25C12.9283 0.25 13.8185 0.618749 14.4749 1.27513C15.1313 1.9315 15.5 2.82174 15.5 3.75C15.5 4.67826 15.1313 5.5685 14.4749 6.22487C13.8185 6.88125 12.9283 7.25 12 7.25C11.0717 7.25 10.1815 6.88125 9.52513 6.22487C8.86875 5.5685 8.5 4.67826 8.5 3.75C8.5 2.82174 8.86875 1.9315 9.52513 1.27513C10.1815 0.618749 11.0717 0.25 12 0.25ZM5 2.75C5.56 2.75 6.08 2.9 6.53 3.17C6.38 4.6 6.8 6.02 7.66 7.13C7.16 8.09 6.16 8.75 5 8.75C4.20435 8.75 3.44129 8.43393 2.87868 7.87132C2.31607 7.30871 2 6.54565 2 5.75C2 4.95435 2.31607 4.19129 2.87868 3.62868C3.44129 3.06607 4.20435 2.75 5 2.75ZM19 2.75C19.7956 2.75 20.5587 3.06607 21.1213 3.62868C21.6839 4.19129 22 4.95435 22 5.75C22 6.54565 21.6839 7.30871 21.1213 7.87132C20.5587 8.43393 19.7956 8.75 19 8.75C17.84 8.75 16.84 8.09 16.34 7.13C17.2 6.02 17.62 4.6 17.47 3.17C17.92 2.9 18.44 2.75 19 2.75ZM5.5 13C5.5 10.93 8.41 9.25 12 9.25C15.59 9.25 18.5 10.93 18.5 13V14.75H5.5V13ZM0 14.75V13.25C0 11.86 1.89 10.69 4.45 10.35C3.86 11.03 3.5 11.97 3.5 13V14.75H0ZM24 14.75H20.5V13C20.5 11.97 20.14 11.03 19.55 10.35C22.11 10.69 24 11.86 24 13.25V14.75Z" fill="#fff"/>
</svg>
